<?xml version="1.0" encoding="UTF-8"?><svg id="Layer_1" xmlns="http://www.w3.org/2000/svg" viewBox="0 0 1200 350"><defs><style>.cls-1{fill:#03a5ff;}.cls-2{fill:#0025bf;}.cls-3{fill:#323c4a;}.cls-4{fill:#067dff;}.cls-5{fill:#0b51ff;}</style></defs><g id="Layer_1-2"><g><g id="Group_224"><path id="Path_445" class="cls-2" d="M100,204.47c0,8.8,6.84,16.13,15.64,16.61h125.58L100,90.62v113.85Z"/><path id="Path_446" class="cls-5" d="M162.55,90.62h-62.55L241.71,221.57l43.98,40.56v-57.66l-123.14-113.85Z"/><path id="Path_447" class="cls-4" d="M162.55,90.62l123.14,113.85v-57.66l-60.59-56.19h-62.55Z"/><path id="Path_448" class="cls-1" d="M270.05,90.62h-44.95l60.59,56.19v-39.58c.49-9.28-6.84-16.61-15.64-16.61Z"/></g><g id="Group_54"><path id="Path_105" class="cls-3" d="M400.7,120.66v9.28c-5.86-7.33-14.66-11.24-23.45-10.75-19.06,0-34.69,15.15-34.69,34.69v2.44c-.98,19.06,13.68,35.67,32.74,36.65h1.95c9.28,0,17.59-3.91,23.45-10.75v.98c0,20.03-8.31,27.85-21.99,27.85-7.82,0-15.15-4.4-19.06-11.24l-14.66,6.84c6.35,12.7,19.06,21.01,33.23,20.52,23.94,0,39.58-13.68,39.58-45.44v-60.59l-17.1-.49Zm-20.52,55.7c-11.24,0-20.03-9.28-19.55-20.03v-.49c-.49-10.75,8.31-20.03,19.06-20.03h.49c11.24,0,20.52,8.8,20.52,20.03s-8.8,20.52-20.52,20.52h0Z"/><path id="Path_106" class="cls-3" d="M483.77,120.66v9.28c-5.86-7.33-14.17-11.24-23.45-10.75-20.52,1.47-35.67,18.57-34.2,39.09,.98,18.57,16.13,33.23,34.69,34.2,9.28,.49,18.08-3.91,23.45-11.24v9.28h17.59V120.17h-18.08v.49h0Zm-20.52,55.7c-11.24,0-20.03-9.28-19.55-20.03v-.49c-.49-10.75,8.31-20.03,19.06-20.03h.49c11.24,0,20.03,9.28,20.03,20.52-.49,11.24-9.28,20.03-20.03,20.03h0Z"/><path id="Path_107" class="cls-3" d="M542.9,120.66v-25.9l-17.59,13.68v12.22h-12.7v14.17h12.7v56.19h17.59v-56.19h15.15v-14.17h-15.15Z"/><path id="Path_108" class="cls-3" d="M635.74,155.35c.98-19.06-14.17-35.18-33.23-36.16h-2.93c-20.52,0-36.65,16.61-36.65,36.65s16.61,36.65,36.65,36.65h0c12.7,.49,24.43-5.38,31.76-15.64l-11.73-8.8c-4.89,5.86-11.73,8.8-19.06,8.8-9.28,.98-18.08-5.38-20.03-14.66h54.24c.49-2.44,.98-4.4,.98-6.84Zm-55.22-5.37c1.47-9.28,9.77-16.13,19.06-15.15,9.28-.98,17.59,5.86,18.08,15.15h-37.14Z"/><path id="Path_109" class="cls-3" d="M729.56,120.66l-15.15,45.44-15.15-45.44h-15.64l-15.15,45.44-15.15-45.44h-19.06l25.9,70.36h14.66l15.64-48.38,16.61,48.38h14.66l25.41-70.36h-17.59Z"/><path id="Path_110" class="cls-3" d="M806.76,120.66v9.28c-5.37-7.33-14.17-11.24-23.45-10.75-20.52,1.47-35.67,18.57-34.2,39.09,.98,18.57,16.13,33.23,34.69,34.2,9.28,.49,18.08-3.91,23.45-11.24v9.28h17.59V120.17h-18.08v.49h0Zm-20.52,55.7c-11.24,0-20.03-9.28-19.55-20.03v-.49c-.49-10.75,8.31-20.03,19.06-20.03h.49c11.24,0,20.52,8.8,20.52,20.03s-8.8,20.52-20.03,20.52h-.49Z"/><path id="Path_111" class="cls-3" d="M888.85,120.66l-18.08,44.47-18.08-44.47h-19.06l27.85,65.48-15.64,39.09h18.57l43.98-105.06-19.55,.49Z"/><path id="Path_112" class="cls-3" d="M973.39,120.66v13.68c-5.86-9.77-16.61-15.64-27.85-15.15-20.52,.49-36.16,17.59-35.67,37.63,.49,19.55,16.13,35.18,35.67,35.67,11.24,.49,21.99-5.38,27.85-15.15v13.68h9.77V120.66h-9.77Zm-27.36,63.03c-15.15,0-26.88-12.22-26.88-27.36v-.49c-.49-14.66,11.73-26.88,26.39-27.36h.49c15.15,0,27.36,11.73,27.36,26.88v.98c.49,14.66-11.24,26.88-26.39,27.36,0,0-.49,0-.98,0h0Z"/><path id="Path_113" class="cls-3" d="M1038.87,119.19c-11.24-.49-21.99,5.38-27.85,15.15v-13.68h-9.77v104.57h9.77v-47.89c5.86,9.77,16.61,15.64,27.85,15.15,20.52-.49,36.16-17.59,35.67-37.63-.49-19.06-16.13-35.18-35.67-35.67Zm-.49,64.5c-15.15,.49-27.85-11.73-27.85-26.88-.49-15.15,11.73-27.85,26.88-27.85,15.15-.49,27.85,11.73,27.85,26.88v.98c0,14.66-12.22,26.88-26.88,26.88h0Z"/><path id="Path_114" class="cls-3" d="M1088.22,120.66v70.36h9.77V120.66h-9.77Zm4.4-32.74c-3.91-.49-7.33,2.44-7.33,6.35-.49,3.91,2.44,7.33,6.35,7.33h.98c3.91,.49,7.33-2.44,7.33-6.35,.49-3.91-2.44-7.33-6.35-7.33h-.98Z"/></g></g></g></svg>